<svg width="132" height="137" viewBox="0 0 132 137" fill="none" xmlns="http://www.w3.org/2000/svg">
<circle cx="66" cy="66" r="66" fill="url(#paint0_linear_71_205)"/>
<rect x="16" y="112" width="100" height="25" rx="5" fill="#FEA405"/>
<path d="M39.488 124.096C39.488 124.379 39.4213 124.645 39.288 124.896C39.1547 125.147 38.9413 125.352 38.648 125.512C38.3547 125.667 37.9787 125.744 37.52 125.744H36.512V128H35.6V122.44H37.52C37.9467 122.44 38.3067 122.515 38.6 122.664C38.8987 122.808 39.12 123.005 39.264 123.256C39.4133 123.507 39.488 123.787 39.488 124.096ZM37.52 125C37.8667 125 38.1253 124.923 38.296 124.768C38.4667 124.608 38.552 124.384 38.552 124.096C38.552 123.488 38.208 123.184 37.52 123.184H36.512V125H37.52ZM40.0538 125.776C40.0538 125.333 40.1445 124.941 40.3258 124.6C40.5125 124.259 40.7631 123.995 41.0778 123.808C41.3978 123.616 41.7498 123.52 42.1338 123.52C42.4805 123.52 42.7818 123.589 43.0378 123.728C43.2991 123.861 43.5071 124.029 43.6618 124.232V123.592H44.5818V128H43.6618V127.344C43.5071 127.552 43.2965 127.725 43.0298 127.864C42.7631 128.003 42.4591 128.072 42.1178 128.072C41.7391 128.072 41.3925 127.976 41.0778 127.784C40.7631 127.587 40.5125 127.315 40.3258 126.968C40.1445 126.616 40.0538 126.219 40.0538 125.776ZM43.6618 125.792C43.6618 125.488 43.5978 125.224 43.4698 125C43.3471 124.776 43.1845 124.605 42.9818 124.488C42.7791 124.371 42.5605 124.312 42.3258 124.312C42.0911 124.312 41.8725 124.371 41.6698 124.488C41.4671 124.6 41.3018 124.768 41.1738 124.992C41.0511 125.211 40.9898 125.472 40.9898 125.776C40.9898 126.08 41.0511 126.347 41.1738 126.576C41.3018 126.805 41.4671 126.981 41.6698 127.104C41.8778 127.221 42.0965 127.28 42.3258 127.28C42.5605 127.28 42.7791 127.221 42.9818 127.104C43.1845 126.987 43.3471 126.816 43.4698 126.592C43.5978 126.363 43.6618 126.096 43.6618 125.792ZM48.0597 123.52C48.3957 123.52 48.6944 123.592 48.9557 123.736C49.2224 123.88 49.4304 124.093 49.5797 124.376C49.7344 124.659 49.8117 125 49.8117 125.4V128H48.9077V125.536C48.9077 125.141 48.809 124.84 48.6117 124.632C48.4144 124.419 48.145 124.312 47.8037 124.312C47.4624 124.312 47.1904 124.419 46.9877 124.632C46.7904 124.84 46.6917 125.141 46.6917 125.536V128H45.7797V122.08H46.6917V124.104C46.8464 123.917 47.041 123.773 47.2757 123.672C47.5157 123.571 47.777 123.52 48.0597 123.52ZM51.887 122.08V128H50.975V122.08H51.887ZM52.7804 125.776C52.7804 125.333 52.871 124.941 53.0524 124.6C53.239 124.259 53.4897 123.995 53.8044 123.808C54.1244 123.616 54.4764 123.52 54.8604 123.52C55.207 123.52 55.5084 123.589 55.7644 123.728C56.0257 123.861 56.2337 124.029 56.3884 124.232V123.592H57.3084V128H56.3884V127.344C56.2337 127.552 56.023 127.725 55.7564 127.864C55.4897 128.003 55.1857 128.072 54.8444 128.072C54.4657 128.072 54.119 127.976 53.8044 127.784C53.4897 127.587 53.239 127.315 53.0524 126.968C52.871 126.616 52.7804 126.219 52.7804 125.776ZM56.3884 125.792C56.3884 125.488 56.3244 125.224 56.1964 125C56.0737 124.776 55.911 124.605 55.7084 124.488C55.5057 124.371 55.287 124.312 55.0524 124.312C54.8177 124.312 54.599 124.371 54.3964 124.488C54.1937 124.6 54.0284 124.768 53.9004 124.992C53.7777 125.211 53.7164 125.472 53.7164 125.776C53.7164 126.08 53.7777 126.347 53.9004 126.576C54.0284 126.805 54.1937 126.981 54.3964 127.104C54.6044 127.221 54.823 127.28 55.0524 127.28C55.287 127.28 55.5057 127.221 55.7084 127.104C55.911 126.987 56.0737 126.816 56.1964 126.592C56.3244 126.363 56.3884 126.096 56.3884 125.792ZM64.4263 123.592L63.0583 128H62.0983L61.2103 124.744L60.3223 128H59.3623L57.9863 123.592H58.9143L59.8343 127.136L60.7703 123.592H61.7223L62.6183 127.12L63.5303 123.592H64.4263ZM64.8038 125.776C64.8038 125.333 64.8945 124.941 65.0758 124.6C65.2625 124.259 65.5131 123.995 65.8278 123.808C66.1478 123.616 66.4998 123.52 66.8838 123.52C67.2305 123.52 67.5318 123.589 67.7878 123.728C68.0491 123.861 68.2571 124.029 68.4118 124.232V123.592H69.3318V128H68.4118V127.344C68.2571 127.552 68.0465 127.725 67.7798 127.864C67.5131 128.003 67.2091 128.072 66.8678 128.072C66.4891 128.072 66.1425 127.976 65.8278 127.784C65.5131 127.587 65.2625 127.315 65.0758 126.968C64.8945 126.616 64.8038 126.219 64.8038 125.776ZM68.4118 125.792C68.4118 125.488 68.3478 125.224 68.2198 125C68.0971 124.776 67.9345 124.605 67.7318 124.488C67.5291 124.371 67.3105 124.312 67.0758 124.312C66.8411 124.312 66.6225 124.371 66.4198 124.488C66.2171 124.6 66.0518 124.768 65.9238 124.992C65.8011 125.211 65.7398 125.472 65.7398 125.776C65.7398 126.08 65.8011 126.347 65.9238 126.576C66.0518 126.805 66.2171 126.981 66.4198 127.104C66.6278 127.221 66.8465 127.28 67.0758 127.28C67.3105 127.28 67.5291 127.221 67.7318 127.104C67.9345 126.987 68.0971 126.816 68.2198 126.592C68.3478 126.363 68.4118 126.096 68.4118 125.792ZM72.7537 123.52C73.1004 123.52 73.4097 123.592 73.6817 123.736C73.959 123.88 74.175 124.093 74.3297 124.376C74.4844 124.659 74.5617 125 74.5617 125.4V128H73.6577V125.536C73.6577 125.141 73.559 124.84 73.3617 124.632C73.1644 124.419 72.895 124.312 72.5537 124.312C72.2124 124.312 71.9404 124.419 71.7377 124.632C71.5404 124.84 71.4417 125.141 71.4417 125.536V128H70.5297V123.592H71.4417V124.096C71.591 123.915 71.7804 123.773 72.0097 123.672C72.2444 123.571 72.4924 123.52 72.7537 123.52ZM80.7791 125.144C81.0778 125.197 81.3311 125.355 81.5391 125.616C81.7471 125.877 81.8511 126.173 81.8511 126.504C81.8511 126.787 81.7765 127.043 81.6271 127.272C81.4831 127.496 81.2725 127.675 80.9951 127.808C80.7178 127.936 80.3951 128 80.0271 128H77.8031V122.44H79.9231C80.3018 122.44 80.6271 122.504 80.8991 122.632C81.1711 122.76 81.3765 122.933 81.5151 123.152C81.6538 123.365 81.7231 123.605 81.7231 123.872C81.7231 124.192 81.6378 124.459 81.4671 124.672C81.2965 124.885 81.0671 125.043 80.7791 125.144ZM78.7151 124.776H79.8431C80.1418 124.776 80.3738 124.709 80.5391 124.576C80.7098 124.437 80.7951 124.24 80.7951 123.984C80.7951 123.733 80.7098 123.539 80.5391 123.4C80.3738 123.256 80.1418 123.184 79.8431 123.184H78.7151V124.776ZM79.9471 127.256C80.2565 127.256 80.4991 127.181 80.6751 127.032C80.8511 126.883 80.9391 126.675 80.9391 126.408C80.9391 126.136 80.8458 125.92 80.6591 125.76C80.4725 125.6 80.2245 125.52 79.9151 125.52H78.7151V127.256H79.9471ZM86.8342 123.592V128H85.9222V127.48C85.7782 127.661 85.5889 127.805 85.3542 127.912C85.1249 128.013 84.8795 128.064 84.6182 128.064C84.2715 128.064 83.9595 127.992 83.6822 127.848C83.4102 127.704 83.1942 127.491 83.0342 127.208C82.8795 126.925 82.8022 126.584 82.8022 126.184V123.592H83.7062V126.048C83.7062 126.443 83.8049 126.747 84.0022 126.96C84.1995 127.168 84.4689 127.272 84.8102 127.272C85.1515 127.272 85.4209 127.168 85.6182 126.96C85.8209 126.747 85.9222 126.443 85.9222 126.048V123.592H86.8342ZM93.3735 123.52C93.7202 123.52 94.0295 123.592 94.3015 123.736C94.5788 123.88 94.7948 124.093 94.9495 124.376C95.1095 124.659 95.1895 125 95.1895 125.4V128H94.2855V125.536C94.2855 125.141 94.1868 124.84 93.9895 124.632C93.7922 124.419 93.5228 124.312 93.1815 124.312C92.8402 124.312 92.5682 124.419 92.3655 124.632C92.1682 124.84 92.0695 125.141 92.0695 125.536V128H91.1655V125.536C91.1655 125.141 91.0668 124.84 90.8695 124.632C90.6722 124.419 90.4028 124.312 90.0615 124.312C89.7202 124.312 89.4482 124.419 89.2455 124.632C89.0482 124.84 88.9495 125.141 88.9495 125.536V128H88.0375V123.592H88.9495V124.096C89.0988 123.915 89.2882 123.773 89.5175 123.672C89.7468 123.571 89.9922 123.52 90.2535 123.52C90.6055 123.52 90.9202 123.595 91.1975 123.744C91.4748 123.893 91.6882 124.109 91.8375 124.392C91.9708 124.125 92.1788 123.915 92.4615 123.76C92.7442 123.6 93.0482 123.52 93.3735 123.52ZM96.814 123.008C96.6487 123.008 96.51 122.952 96.398 122.84C96.286 122.728 96.23 122.589 96.23 122.424C96.23 122.259 96.286 122.12 96.398 122.008C96.51 121.896 96.6487 121.84 96.814 121.84C96.974 121.84 97.11 121.896 97.222 122.008C97.334 122.12 97.39 122.259 97.39 122.424C97.39 122.589 97.334 122.728 97.222 122.84C97.11 122.952 96.974 123.008 96.814 123.008ZM97.262 123.592V128H96.35V123.592H97.262Z" fill="white"/>
<path d="M90.675 80.15C92.075 77.7 93.125 74.9 93.125 71.75C93.125 63 86.125 56 77.375 56C68.625 56 61.625 63 61.625 71.75C61.625 80.5 68.625 87.5 77.375 87.5C80.525 87.5 83.325 86.45 85.775 85.05L96.975 96.25L101.875 91.35L90.675 80.15ZM77.375 80.5C72.475 80.5 68.625 76.65 68.625 71.75C68.625 66.85 72.475 63 77.375 63C82.275 63 86.125 66.85 86.125 71.75C86.125 76.65 82.275 80.5 77.375 80.5ZM65.125 91V98C45.805 98 30.125 82.32 30.125 63C30.125 43.68 45.805 28 65.125 28C82.065 28 96.17 40.04 99.425 56H92.18C89.94 47.39 83.78 40.355 75.625 37.065V38.5C75.625 42.35 72.475 45.5 68.625 45.5H61.625V52.5C61.625 54.425 60.05 56 58.125 56H51.125V63H58.125V73.5H54.625L37.86 56.735C37.405 58.765 37.125 60.83 37.125 63C37.125 78.435 49.69 91 65.125 91Z" fill="white"/>
<defs>
<linearGradient id="paint0_linear_71_205" x1="66" y1="-27.5" x2="66" y2="132" gradientUnits="userSpaceOnUse">
<stop stop-color="#FFD700"/>
<stop offset="1" stop-color="#B65B00"/>
</linearGradient>
</defs>
</svg>
