<svg width="132" height="140" viewBox="0 0 132 140" fill="none" xmlns="http://www.w3.org/2000/svg">
<circle cx="66" cy="66" r="66" fill="url(#paint0_linear_71_203)"/>
<rect x="16" y="115" width="100" height="25" rx="5" fill="#FEA405"/>
<path d="M41.61 126.12C41.61 126.473 41.5267 126.807 41.36 127.12C41.1933 127.433 40.9267 127.69 40.56 127.89C40.1933 128.083 39.7233 128.18 39.15 128.18H37.89V131H36.75V124.05H39.15C39.6833 124.05 40.1333 124.143 40.5 124.33C40.8733 124.51 41.15 124.757 41.33 125.07C41.5167 125.383 41.61 125.733 41.61 126.12ZM39.15 127.25C39.5833 127.25 39.9067 127.153 40.12 126.96C40.3333 126.76 40.44 126.48 40.44 126.12C40.44 125.36 40.01 124.98 39.15 124.98H37.89V127.25H39.15ZM47.7473 128.11C47.7473 128.317 47.7339 128.503 47.7073 128.67H43.4973C43.5306 129.11 43.6939 129.463 43.9873 129.73C44.2806 129.997 44.6406 130.13 45.0673 130.13C45.6806 130.13 46.1139 129.873 46.3673 129.36H47.5973C47.4306 129.867 47.1273 130.283 46.6873 130.61C46.2539 130.93 45.7139 131.09 45.0673 131.09C44.5406 131.09 44.0673 130.973 43.6473 130.74C43.2339 130.5 42.9073 130.167 42.6673 129.74C42.4339 129.307 42.3173 128.807 42.3173 128.24C42.3173 127.673 42.4306 127.177 42.6573 126.75C42.8906 126.317 43.2139 125.983 43.6273 125.75C44.0473 125.517 44.5273 125.4 45.0673 125.4C45.5873 125.4 46.0506 125.513 46.4573 125.74C46.8639 125.967 47.1806 126.287 47.4073 126.7C47.6339 127.107 47.7473 127.577 47.7473 128.11ZM46.5573 127.75C46.5506 127.33 46.4006 126.993 46.1073 126.74C45.8139 126.487 45.4506 126.36 45.0173 126.36C44.6239 126.36 44.2873 126.487 44.0073 126.74C43.7273 126.987 43.5606 127.323 43.5073 127.75H46.5573ZM55.5391 125.4C55.9725 125.4 56.3591 125.49 56.6991 125.67C57.0458 125.85 57.3158 126.117 57.5091 126.47C57.7091 126.823 57.8091 127.25 57.8091 127.75V131H56.6791V127.92C56.6791 127.427 56.5558 127.05 56.3091 126.79C56.0625 126.523 55.7258 126.39 55.2991 126.39C54.8725 126.39 54.5325 126.523 54.2791 126.79C54.0325 127.05 53.9091 127.427 53.9091 127.92V131H52.7791V127.92C52.7791 127.427 52.6558 127.05 52.4091 126.79C52.1625 126.523 51.8258 126.39 51.3991 126.39C50.9725 126.39 50.6325 126.523 50.3791 126.79C50.1325 127.05 50.0091 127.427 50.0091 127.92V131H48.8691V125.49H50.0091V126.12C50.1958 125.893 50.4325 125.717 50.7191 125.59C51.0058 125.463 51.3125 125.4 51.6391 125.4C52.0791 125.4 52.4725 125.493 52.8191 125.68C53.1658 125.867 53.4325 126.137 53.6191 126.49C53.7858 126.157 54.0458 125.893 54.3991 125.7C54.7525 125.5 55.1325 125.4 55.5391 125.4ZM64.2498 125.49V131H63.1098V130.35C62.9298 130.577 62.6931 130.757 62.3998 130.89C62.1131 131.017 61.8064 131.08 61.4798 131.08C61.0464 131.08 60.6564 130.99 60.3098 130.81C59.9698 130.63 59.6998 130.363 59.4998 130.01C59.3064 129.657 59.2098 129.23 59.2098 128.73V125.49H60.3398V128.56C60.3398 129.053 60.4631 129.433 60.7098 129.7C60.9564 129.96 61.2931 130.09 61.7198 130.09C62.1464 130.09 62.4831 129.96 62.7298 129.7C62.9831 129.433 63.1098 129.053 63.1098 128.56V125.49H64.2498ZM66.8939 123.6V131H65.7539V123.6H66.8939ZM68.0106 128.22C68.0106 127.667 68.124 127.177 68.3506 126.75C68.584 126.323 68.8973 125.993 69.2906 125.76C69.6906 125.52 70.1306 125.4 70.6106 125.4C71.044 125.4 71.4206 125.487 71.7406 125.66C72.0673 125.827 72.3273 126.037 72.5206 126.29V125.49H73.6706V131H72.5206V130.18C72.3273 130.44 72.064 130.657 71.7306 130.83C71.3973 131.003 71.0173 131.09 70.5906 131.09C70.1173 131.09 69.684 130.97 69.2906 130.73C68.8973 130.483 68.584 130.143 68.3506 129.71C68.124 129.27 68.0106 128.773 68.0106 128.22ZM72.5206 128.24C72.5206 127.86 72.4406 127.53 72.2806 127.25C72.1273 126.97 71.924 126.757 71.6706 126.61C71.4173 126.463 71.144 126.39 70.8506 126.39C70.5573 126.39 70.284 126.463 70.0306 126.61C69.7773 126.75 69.5706 126.96 69.4106 127.24C69.2573 127.513 69.1806 127.84 69.1806 128.22C69.1806 128.6 69.2573 128.933 69.4106 129.22C69.5706 129.507 69.7773 129.727 70.0306 129.88C70.2906 130.027 70.564 130.1 70.8506 130.1C71.144 130.1 71.4173 130.027 71.6706 129.88C71.924 129.733 72.1273 129.52 72.2806 129.24C72.4406 128.953 72.5206 128.62 72.5206 128.24ZM78.9056 124.97V127.01H81.3056V127.94H78.9056V130.07H81.6056V131H77.7656V124.04H81.6056V124.97H78.9056ZM82.6298 128.24C82.6298 127.673 82.7431 127.177 82.9698 126.75C83.2031 126.317 83.5231 125.983 83.9298 125.75C84.3364 125.517 84.8031 125.4 85.3298 125.4C85.9964 125.4 86.5464 125.56 86.9798 125.88C87.4198 126.193 87.7164 126.643 87.8698 127.23H86.6398C86.5398 126.957 86.3798 126.743 86.1598 126.59C85.9398 126.437 85.6631 126.36 85.3298 126.36C84.8631 126.36 84.4898 126.527 84.2098 126.86C83.9364 127.187 83.7998 127.647 83.7998 128.24C83.7998 128.833 83.9364 129.297 84.2098 129.63C84.4898 129.963 84.8631 130.13 85.3298 130.13C85.9898 130.13 86.4264 129.84 86.6398 129.26H87.8698C87.7098 129.82 87.4098 130.267 86.9698 130.6C86.5298 130.927 85.9831 131.09 85.3298 131.09C84.8031 131.09 84.3364 130.973 83.9298 130.74C83.5231 130.5 83.2031 130.167 82.9698 129.74C82.7431 129.307 82.6298 128.807 82.6298 128.24ZM91.3959 131.09C90.8759 131.09 90.4059 130.973 89.9859 130.74C89.5659 130.5 89.2359 130.167 88.9959 129.74C88.7559 129.307 88.6359 128.807 88.6359 128.24C88.6359 127.68 88.7592 127.183 89.0059 126.75C89.2525 126.317 89.5892 125.983 90.0159 125.75C90.4425 125.517 90.9192 125.4 91.4459 125.4C91.9725 125.4 92.4492 125.517 92.8759 125.75C93.3025 125.983 93.6392 126.317 93.8859 126.75C94.1325 127.183 94.2559 127.68 94.2559 128.24C94.2559 128.8 94.1292 129.297 93.8759 129.73C93.6225 130.163 93.2759 130.5 92.8359 130.74C92.4025 130.973 91.9225 131.09 91.3959 131.09ZM91.3959 130.1C91.6892 130.1 91.9625 130.03 92.2159 129.89C92.4759 129.75 92.6859 129.54 92.8459 129.26C93.0059 128.98 93.0859 128.64 93.0859 128.24C93.0859 127.84 93.0092 127.503 92.8559 127.23C92.7025 126.95 92.4992 126.74 92.2459 126.6C91.9925 126.46 91.7192 126.39 91.4259 126.39C91.1325 126.39 90.8592 126.46 90.6059 126.6C90.3592 126.74 90.1625 126.95 90.0159 127.23C89.8692 127.503 89.7959 127.84 89.7959 128.24C89.7959 128.833 89.9459 129.293 90.2459 129.62C90.5525 129.94 90.9359 130.1 91.3959 130.1Z" fill="white"/>
<path d="M59.04 69.57L66 64.29L72.93 69.57L70.29 61.02L77.25 55.5H68.73L66 47.07L63.27 55.5H54.75L61.68 61.02L59.04 69.57ZM90 58.5C90 45.24 79.26 34.5 66 34.5C52.74 34.5 42 45.24 42 58.5C42 64.59 44.28 70.11 48 74.34V97.5L66 91.5L84 97.5V74.34C87.72 70.11 90 64.59 90 58.5ZM66 40.5C75.93 40.5 84 48.57 84 58.5C84 68.43 75.93 76.5 66 76.5C56.07 76.5 48 68.43 48 58.5C48 48.57 56.07 40.5 66 40.5ZM66 85.5L54 88.56V79.26C57.54 81.3 61.62 82.5 66 82.5C70.38 82.5 74.46 81.3 78 79.26V88.56L66 85.5Z" fill="white"/>
<defs>
<linearGradient id="paint0_linear_71_203" x1="66" y1="-8" x2="66" y2="132" gradientUnits="userSpaceOnUse">
<stop stop-color="#239BA7"/>
<stop offset="1" stop-color="#0E3C41"/>
</linearGradient>
</defs>
</svg>
