<svg width="132" height="140" viewBox="0 0 132 140" fill="none" xmlns="http://www.w3.org/2000/svg">
<circle cx="66" cy="66" r="66" fill="url(#paint0_linear_71_206)"/>
<rect x="16" y="115" width="100" height="25" rx="5" fill="#FEA405"/>
<path d="M34.512 130.264H36.392V131H33.6V125.44H34.512V130.264ZM41.1947 128.688C41.1947 128.853 41.184 129.003 41.1627 129.136H37.7947C37.8214 129.488 37.952 129.771 38.1867 129.984C38.4214 130.197 38.7094 130.304 39.0507 130.304C39.5414 130.304 39.888 130.099 40.0907 129.688H41.0747C40.9414 130.093 40.6987 130.427 40.3467 130.688C40 130.944 39.568 131.072 39.0507 131.072C38.6294 131.072 38.2507 130.979 37.9147 130.792C37.584 130.6 37.3227 130.333 37.1307 129.992C36.944 129.645 36.8507 129.245 36.8507 128.792C36.8507 128.339 36.9414 127.941 37.1227 127.6C37.3094 127.253 37.568 126.987 37.8987 126.8C38.2347 126.613 38.6187 126.52 39.0507 126.52C39.4667 126.52 39.8374 126.611 40.1627 126.792C40.488 126.973 40.7414 127.229 40.9227 127.56C41.104 127.885 41.1947 128.261 41.1947 128.688ZM40.2427 128.4C40.2374 128.064 40.1174 127.795 39.8827 127.592C39.648 127.389 39.3574 127.288 39.0107 127.288C38.696 127.288 38.4267 127.389 38.2027 127.592C37.9787 127.789 37.8454 128.059 37.8027 128.4H40.2427ZM43.8682 126.52C44.2095 126.52 44.5109 126.589 44.7722 126.728C45.0389 126.861 45.2469 127.029 45.3962 127.232V126.592H46.3162V131.072C46.3162 131.477 46.2309 131.837 46.0602 132.152C45.8895 132.472 45.6415 132.723 45.3162 132.904C44.9962 133.085 44.6122 133.176 44.1642 133.176C43.5669 133.176 43.0709 133.035 42.6762 132.752C42.2815 132.475 42.0575 132.096 42.0042 131.616H42.9082C42.9775 131.845 43.1242 132.029 43.3482 132.168C43.5775 132.312 43.8495 132.384 44.1642 132.384C44.5322 132.384 44.8282 132.272 45.0522 132.048C45.2815 131.824 45.3962 131.499 45.3962 131.072V130.336C45.2415 130.544 45.0309 130.72 44.7642 130.864C44.5029 131.003 44.2042 131.072 43.8682 131.072C43.4842 131.072 43.1322 130.976 42.8122 130.784C42.4975 130.587 42.2469 130.315 42.0602 129.968C41.8789 129.616 41.7882 129.219 41.7882 128.776C41.7882 128.333 41.8789 127.941 42.0602 127.6C42.2469 127.259 42.4975 126.995 42.8122 126.808C43.1322 126.616 43.4842 126.52 43.8682 126.52ZM45.3962 128.792C45.3962 128.488 45.3322 128.224 45.2042 128C45.0815 127.776 44.9189 127.605 44.7162 127.488C44.5135 127.371 44.2949 127.312 44.0602 127.312C43.8255 127.312 43.6069 127.371 43.4042 127.488C43.2015 127.6 43.0362 127.768 42.9082 127.992C42.7855 128.211 42.7242 128.472 42.7242 128.776C42.7242 129.08 42.7855 129.347 42.9082 129.576C43.0362 129.805 43.2015 129.981 43.4042 130.104C43.6122 130.221 43.8309 130.28 44.0602 130.28C44.2949 130.28 44.5135 130.221 44.7162 130.104C44.9189 129.987 45.0815 129.816 45.2042 129.592C45.3322 129.363 45.3962 129.096 45.3962 128.792ZM51.5541 128.688C51.5541 128.853 51.5434 129.003 51.5221 129.136H48.1541C48.1807 129.488 48.3114 129.771 48.5461 129.984C48.7807 130.197 49.0687 130.304 49.4101 130.304C49.9007 130.304 50.2474 130.099 50.4501 129.688H51.4341C51.3007 130.093 51.0581 130.427 50.7061 130.688C50.3594 130.944 49.9274 131.072 49.4101 131.072C48.9887 131.072 48.6101 130.979 48.2741 130.792C47.9434 130.6 47.6821 130.333 47.4901 129.992C47.3034 129.645 47.2101 129.245 47.2101 128.792C47.2101 128.339 47.3007 127.941 47.4821 127.6C47.6687 127.253 47.9274 126.987 48.2581 126.8C48.5941 126.613 48.9781 126.52 49.4101 126.52C49.8261 126.52 50.1967 126.611 50.5221 126.792C50.8474 126.973 51.1007 127.229 51.2821 127.56C51.4634 127.885 51.5541 128.261 51.5541 128.688ZM50.6021 128.4C50.5967 128.064 50.4767 127.795 50.2421 127.592C50.0074 127.389 49.7167 127.288 49.3701 127.288C49.0554 127.288 48.7861 127.389 48.5621 127.592C48.3381 127.789 48.2047 128.059 48.1621 128.4H50.6021ZM54.6756 126.52C55.0222 126.52 55.3316 126.592 55.6036 126.736C55.8809 126.88 56.0969 127.093 56.2516 127.376C56.4062 127.659 56.4836 128 56.4836 128.4V131H55.5796V128.536C55.5796 128.141 55.4809 127.84 55.2836 127.632C55.0862 127.419 54.8169 127.312 54.4756 127.312C54.1342 127.312 53.8622 127.419 53.6596 127.632C53.4622 127.84 53.3636 128.141 53.3636 128.536V131H52.4516V126.592H53.3636V127.096C53.5129 126.915 53.7022 126.773 53.9316 126.672C54.1662 126.571 54.4142 126.52 54.6756 126.52ZM57.3429 128.776C57.3429 128.333 57.4335 127.941 57.6149 127.6C57.8015 127.259 58.0522 126.995 58.3669 126.808C58.6869 126.616 59.0415 126.52 59.4309 126.52C59.7189 126.52 60.0015 126.584 60.2789 126.712C60.5615 126.835 60.7855 127 60.9509 127.208V125.08H61.8709V131H60.9509V130.336C60.8015 130.549 60.5935 130.725 60.3269 130.864C60.0655 131.003 59.7642 131.072 59.4229 131.072C59.0389 131.072 58.6869 130.976 58.3669 130.784C58.0522 130.587 57.8015 130.315 57.6149 129.968C57.4335 129.616 57.3429 129.219 57.3429 128.776ZM60.9509 128.792C60.9509 128.488 60.8869 128.224 60.7589 128C60.6362 127.776 60.4735 127.605 60.2709 127.488C60.0682 127.371 59.8495 127.312 59.6149 127.312C59.3802 127.312 59.1615 127.371 58.9589 127.488C58.7562 127.6 58.5909 127.768 58.4629 127.992C58.3402 128.211 58.2789 128.472 58.2789 128.776C58.2789 129.08 58.3402 129.347 58.4629 129.576C58.5909 129.805 58.7562 129.981 58.9589 130.104C59.1669 130.221 59.3855 130.28 59.6149 130.28C59.8495 130.28 60.0682 130.221 60.2709 130.104C60.4735 129.987 60.6362 129.816 60.7589 129.592C60.8869 129.363 60.9509 129.096 60.9509 128.792ZM62.7648 128.776C62.7648 128.333 62.8554 127.941 63.0368 127.6C63.2234 127.259 63.4741 126.995 63.7888 126.808C64.1088 126.616 64.4608 126.52 64.8448 126.52C65.1914 126.52 65.4928 126.589 65.7488 126.728C66.0101 126.861 66.2181 127.029 66.3728 127.232V126.592H67.2928V131H66.3728V130.344C66.2181 130.552 66.0074 130.725 65.7408 130.864C65.4741 131.003 65.1701 131.072 64.8288 131.072C64.4501 131.072 64.1034 130.976 63.7888 130.784C63.4741 130.587 63.2234 130.315 63.0368 129.968C62.8554 129.616 62.7648 129.219 62.7648 128.776ZM66.3728 128.792C66.3728 128.488 66.3088 128.224 66.1808 128C66.0581 127.776 65.8954 127.605 65.6928 127.488C65.4901 127.371 65.2714 127.312 65.0368 127.312C64.8021 127.312 64.5834 127.371 64.3808 127.488C64.1781 127.6 64.0128 127.768 63.8848 127.992C63.7621 128.211 63.7008 128.472 63.7008 128.776C63.7008 129.08 63.7621 129.347 63.8848 129.576C64.0128 129.805 64.1781 129.981 64.3808 130.104C64.5888 130.221 64.8074 130.28 65.0368 130.28C65.2714 130.28 65.4901 130.221 65.6928 130.104C65.8954 129.987 66.0581 129.816 66.1808 129.592C66.3088 129.363 66.3728 129.096 66.3728 128.792ZM74.5928 127.04C74.4488 126.763 74.2488 126.555 73.9928 126.416C73.7368 126.272 73.4408 126.2 73.1048 126.2C72.7368 126.2 72.4088 126.283 72.1208 126.448C71.8328 126.613 71.6061 126.848 71.4408 127.152C71.2808 127.456 71.2008 127.808 71.2008 128.208C71.2008 128.608 71.2808 128.963 71.4408 129.272C71.6061 129.576 71.8328 129.811 72.1208 129.976C72.4088 130.141 72.7368 130.224 73.1048 130.224C73.6008 130.224 74.0034 130.085 74.3128 129.808C74.6221 129.531 74.8114 129.155 74.8808 128.68H72.7928V127.952H75.8568V128.664C75.7981 129.096 75.6434 129.493 75.3928 129.856C75.1474 130.219 74.8248 130.509 74.4248 130.728C74.0301 130.941 73.5901 131.048 73.1048 131.048C72.5821 131.048 72.1048 130.928 71.6728 130.688C71.2408 130.443 70.8968 130.104 70.6408 129.672C70.3901 129.24 70.2648 128.752 70.2648 128.208C70.2648 127.664 70.3901 127.176 70.6408 126.744C70.8968 126.312 71.2408 125.976 71.6728 125.736C72.1101 125.491 72.5874 125.368 73.1048 125.368C73.6968 125.368 74.2221 125.515 74.6808 125.808C75.1448 126.096 75.4808 126.507 75.6888 127.04H74.5928ZM77.6683 127.232C77.8016 127.008 77.9776 126.835 78.1963 126.712C78.4203 126.584 78.6843 126.52 78.9883 126.52V127.464H78.7563C78.3989 127.464 78.1269 127.555 77.9403 127.736C77.7589 127.917 77.6683 128.232 77.6683 128.68V131H76.7563V126.592H77.6683V127.232ZM83.8666 128.688C83.8666 128.853 83.8559 129.003 83.8346 129.136H80.4666C80.4932 129.488 80.6239 129.771 80.8586 129.984C81.0932 130.197 81.3812 130.304 81.7226 130.304C82.2132 130.304 82.5599 130.099 82.7626 129.688H83.7466C83.6132 130.093 83.3706 130.427 83.0186 130.688C82.6719 130.944 82.2399 131.072 81.7226 131.072C81.3012 131.072 80.9226 130.979 80.5866 130.792C80.2559 130.6 79.9946 130.333 79.8026 129.992C79.6159 129.645 79.5226 129.245 79.5226 128.792C79.5226 128.339 79.6132 127.941 79.7946 127.6C79.9812 127.253 80.2399 126.987 80.5706 126.8C80.9066 126.613 81.2906 126.52 81.7226 126.52C82.1386 126.52 82.5092 126.611 82.8346 126.792C83.1599 126.973 83.4132 127.229 83.5946 127.56C83.7759 127.885 83.8666 128.261 83.8666 128.688ZM82.9146 128.4C82.9092 128.064 82.7892 127.795 82.5546 127.592C82.3199 127.389 82.0292 127.288 81.6826 127.288C81.3679 127.288 81.0986 127.389 80.8746 127.592C80.6506 127.789 80.5172 128.059 80.4746 128.4H82.9146ZM88.8041 128.688C88.8041 128.853 88.7934 129.003 88.7721 129.136H85.4041C85.4307 129.488 85.5614 129.771 85.7961 129.984C86.0307 130.197 86.3187 130.304 86.6601 130.304C87.1507 130.304 87.4974 130.099 87.7001 129.688H88.6841C88.5507 130.093 88.3081 130.427 87.9561 130.688C87.6094 130.944 87.1774 131.072 86.6601 131.072C86.2387 131.072 85.8601 130.979 85.5241 130.792C85.1934 130.6 84.9321 130.333 84.7401 129.992C84.5534 129.645 84.4601 129.245 84.4601 128.792C84.4601 128.339 84.5507 127.941 84.7321 127.6C84.9187 127.253 85.1774 126.987 85.5081 126.8C85.8441 126.613 86.2281 126.52 86.6601 126.52C87.0761 126.52 87.4467 126.611 87.7721 126.792C88.0974 126.973 88.3507 127.229 88.5321 127.56C88.7134 127.885 88.8041 128.261 88.8041 128.688ZM87.8521 128.4C87.8467 128.064 87.7267 127.795 87.4921 127.592C87.2574 127.389 86.9667 127.288 86.6201 127.288C86.3054 127.288 86.0361 127.389 85.8121 127.592C85.5881 127.789 85.4547 128.059 85.4121 128.4H87.8521ZM91.4056 130.184L92.6536 126.592H93.6216L91.9416 131H90.8536L89.1816 126.592H90.1576L91.4056 130.184ZM96.2229 131.072C95.8069 131.072 95.4309 130.979 95.0949 130.792C94.7589 130.6 94.4949 130.333 94.3029 129.992C94.1109 129.645 94.0149 129.245 94.0149 128.792C94.0149 128.344 94.1136 127.947 94.3109 127.6C94.5083 127.253 94.7776 126.987 95.1189 126.8C95.4603 126.613 95.8416 126.52 96.2629 126.52C96.6843 126.52 97.0656 126.613 97.4069 126.8C97.7483 126.987 98.0176 127.253 98.2149 127.6C98.4123 127.947 98.5109 128.344 98.5109 128.792C98.5109 129.24 98.4096 129.637 98.2069 129.984C98.0043 130.331 97.7269 130.6 97.3749 130.792C97.0283 130.979 96.6443 131.072 96.2229 131.072ZM96.2229 130.28C96.4576 130.28 96.6763 130.224 96.8789 130.112C97.0869 130 97.2549 129.832 97.3829 129.608C97.5109 129.384 97.5749 129.112 97.5749 128.792C97.5749 128.472 97.5136 128.203 97.3909 127.984C97.2683 127.76 97.1056 127.592 96.9029 127.48C96.7003 127.368 96.4816 127.312 96.2469 127.312C96.0123 127.312 95.7936 127.368 95.5909 127.48C95.3936 127.592 95.2363 127.76 95.1189 127.984C95.0016 128.203 94.9429 128.472 94.9429 128.792C94.9429 129.267 95.0629 129.635 95.3029 129.896C95.5483 130.152 95.8549 130.28 96.2229 130.28Z" fill="white"/>
<g clip-path="url(#clip0_71_206)">
<mask id="mask0_71_206" style="mask-type:luminance" maskUnits="userSpaceOnUse" x="32" y="29" width="68" height="74">
<path d="M100 29H32V103H100V29Z" fill="white"/>
</mask>
<g mask="url(#mask0_71_206)">
<path d="M64.6063 45.5469C59.5183 48.4526 54.4103 51.3608 49.2821 54.2715V54.2725C48.7649 54.5531 48.3255 54.9581 48.0067 55.4531L47.8719 55.6816C47.5598 56.2585 47.4191 56.911 47.4618 57.5645V74.292C47.4318 74.9191 47.5593 75.5414 47.8338 76.1025L47.9706 76.3564C48.3342 76.9733 48.8675 77.4669 49.5008 77.7891C54.3072 80.4875 59.0986 83.2157 63.8748 85.9736C64.5035 86.3787 65.2356 86.5967 65.9842 86.5967C66.7331 86.5966 67.4642 86.3777 68.0926 85.9727C71.1644 84.1684 74.2648 82.4532 77.41 80.6611L77.4159 80.6572C79.3175 79.5643 81.3494 78.3836 83.1864 77.3271L84.5672 76.5332L84.1014 75.0088C83.6078 73.3947 82.0572 72.8445 82.1639 72.9062C77.7581 70.379 73.316 67.7889 68.8202 65.3154L68.7157 65.2578L68.6053 65.2139L68.4579 65.1396C68.365 65.0836 68.2828 65.0139 68.2137 64.9336L68.12 64.8057C68.0097 64.6256 67.9626 64.4177 67.9823 64.2129L67.9891 64.1426L67.9911 64.0723C68.1203 58.9058 68.0363 53.7371 67.9911 48.6426C67.9911 48.6685 67.9878 48.7016 68.0077 48.5107C68.021 48.3825 68.0501 48.1018 68.0233 47.7822C67.9943 47.4367 67.8986 47.0123 67.6463 46.585C67.394 46.1577 67.0468 45.8333 66.6659 45.5928L65.6502 44.9512L64.6063 45.5469ZM34.1161 65.7314C34.1161 61.5963 34.0634 57.5302 34.1161 53.4541V53.3994C34.0905 51.6428 34.5545 49.9113 35.4598 48.3955C36.3652 46.8797 37.6774 45.6367 39.2547 44.8057L39.2889 44.7871L39.3221 44.7686C46.4384 40.6651 53.5681 36.6067 60.7079 32.5283L60.7391 32.5107L60.7704 32.4922C62.3558 31.5093 64.1912 30.9864 66.0663 30.9863C67.9417 30.9863 69.7776 31.5092 71.3631 32.4922L71.3954 32.5117L71.4276 32.5303C78.4143 36.5115 85.3935 40.4924 92.3651 44.4736L92.367 44.4746C95.8185 46.4418 97.7361 49.0954 97.8807 52.7852L97.8895 53.1455C97.9577 61.9845 98.1151 70.7242 97.785 79.4678L97.784 79.4922V79.5176C97.7665 80.8814 97.398 82.2197 96.7118 83.4062C96.0254 84.5927 95.043 85.5894 93.8553 86.3008L93.8446 86.3076L93.8338 86.3135C86.0472 91.1089 78.1127 95.6523 70.0301 99.9424L69.9969 99.96C68.7613 100.646 67.3661 101.008 65.9461 101.008C64.5259 101.008 63.1309 100.646 61.8954 99.96L61.8582 99.9404L60.3856 99.1572C53.0278 95.2236 45.8111 91.0239 38.6122 86.7451L38.6112 86.7441L38.2782 86.5391C34.917 84.3752 33.9665 81.0219 33.9872 76.626V67.4355L34.1161 67.4131V65.7314Z" stroke="white" stroke-width="4"/>
</g>
</g>
<defs>
<linearGradient id="paint0_linear_71_206" x1="66" y1="0" x2="66" y2="143" gradientUnits="userSpaceOnUse">
<stop stop-color="#A02334"/>
<stop offset="1" stop-color="#3A0D13"/>
</linearGradient>
<clipPath id="clip0_71_206">
<rect width="68" height="74" fill="white" transform="translate(32 29)"/>
</clipPath>
</defs>
</svg>
