<svg width="132" height="141" viewBox="0 0 132 141" fill="none" xmlns="http://www.w3.org/2000/svg">
<circle cx="66" cy="66" r="66" fill="url(#paint0_linear_71_204)"/>
<rect x="16" y="116" width="100" height="25" rx="5" fill="#FEA405"/>
<path d="M36.488 128.096C36.488 128.379 36.4213 128.645 36.288 128.896C36.1547 129.147 35.9413 129.352 35.648 129.512C35.3547 129.667 34.9787 129.744 34.52 129.744H33.512V132H32.6V126.44H34.52C34.9467 126.44 35.3067 126.515 35.6 126.664C35.8987 126.808 36.12 127.005 36.264 127.256C36.4133 127.507 36.488 127.787 36.488 128.096ZM34.52 129C34.8667 129 35.1253 128.923 35.296 128.768C35.4667 128.608 35.552 128.384 35.552 128.096C35.552 127.488 35.208 127.184 34.52 127.184H33.512V129H34.52ZM41.3978 129.688C41.3978 129.853 41.3871 130.003 41.3658 130.136H37.9978C38.0245 130.488 38.1551 130.771 38.3898 130.984C38.6245 131.197 38.9125 131.304 39.2538 131.304C39.7445 131.304 40.0911 131.099 40.2938 130.688H41.2778C41.1445 131.093 40.9018 131.427 40.5498 131.688C40.2031 131.944 39.7711 132.072 39.2538 132.072C38.8325 132.072 38.4538 131.979 38.1178 131.792C37.7871 131.6 37.5258 131.333 37.3338 130.992C37.1471 130.645 37.0538 130.245 37.0538 129.792C37.0538 129.339 37.1445 128.941 37.3258 128.6C37.5125 128.253 37.7711 127.987 38.1018 127.8C38.4378 127.613 38.8218 127.52 39.2538 127.52C39.6698 127.52 40.0405 127.611 40.3658 127.792C40.6911 127.973 40.9445 128.229 41.1258 128.56C41.3071 128.885 41.3978 129.261 41.3978 129.688ZM40.4458 129.4C40.4405 129.064 40.3205 128.795 40.0858 128.592C39.8511 128.389 39.5605 128.288 39.2138 128.288C38.8991 128.288 38.6298 128.389 38.4058 128.592C38.1818 128.789 38.0485 129.059 38.0058 129.4H40.4458ZM44.5193 127.52C44.866 127.52 45.1753 127.592 45.4473 127.736C45.7246 127.88 45.9406 128.093 46.0953 128.376C46.25 128.659 46.3273 129 46.3273 129.4V132H45.4233V129.536C45.4233 129.141 45.3246 128.84 45.1273 128.632C44.93 128.419 44.6606 128.312 44.3193 128.312C43.978 128.312 43.706 128.419 43.5033 128.632C43.306 128.84 43.2073 129.141 43.2073 129.536V132H42.2953V127.592H43.2073V128.096C43.3566 127.915 43.546 127.773 43.7753 127.672C44.01 127.571 44.258 127.52 44.5193 127.52ZM49.2666 127.52C49.608 127.52 49.9093 127.589 50.1706 127.728C50.4373 127.861 50.6453 128.029 50.7946 128.232V127.592H51.7146V132.072C51.7146 132.477 51.6293 132.837 51.4586 133.152C51.288 133.472 51.04 133.723 50.7146 133.904C50.3946 134.085 50.0106 134.176 49.5626 134.176C48.9653 134.176 48.4693 134.035 48.0746 133.752C47.68 133.475 47.456 133.096 47.4026 132.616H48.3066C48.376 132.845 48.5226 133.029 48.7466 133.168C48.976 133.312 49.248 133.384 49.5626 133.384C49.9306 133.384 50.2266 133.272 50.4506 133.048C50.68 132.824 50.7946 132.499 50.7946 132.072V131.336C50.64 131.544 50.4293 131.72 50.1626 131.864C49.9013 132.003 49.6026 132.072 49.2666 132.072C48.8826 132.072 48.5306 131.976 48.2106 131.784C47.896 131.587 47.6453 131.315 47.4586 130.968C47.2773 130.616 47.1866 130.219 47.1866 129.776C47.1866 129.333 47.2773 128.941 47.4586 128.6C47.6453 128.259 47.896 127.995 48.2106 127.808C48.5306 127.616 48.8826 127.52 49.2666 127.52ZM50.7946 129.792C50.7946 129.488 50.7306 129.224 50.6026 129C50.48 128.776 50.3173 128.605 50.1146 128.488C49.912 128.371 49.6933 128.312 49.4586 128.312C49.224 128.312 49.0053 128.371 48.8026 128.488C48.6 128.6 48.4346 128.768 48.3066 128.992C48.184 129.211 48.1226 129.472 48.1226 129.776C48.1226 130.08 48.184 130.347 48.3066 130.576C48.4346 130.805 48.6 130.981 48.8026 131.104C49.0106 131.221 49.2293 131.28 49.4586 131.28C49.6933 131.28 49.912 131.221 50.1146 131.104C50.3173 130.987 50.48 130.816 50.6026 130.592C50.7306 130.363 50.7946 130.096 50.7946 129.792ZM54.6885 127.52C55.0298 127.52 55.3312 127.589 55.5925 127.728C55.8592 127.861 56.0672 128.029 56.2165 128.232V127.592H57.1365V132.072C57.1365 132.477 57.0512 132.837 56.8805 133.152C56.7098 133.472 56.4618 133.723 56.1365 133.904C55.8165 134.085 55.4325 134.176 54.9845 134.176C54.3872 134.176 53.8912 134.035 53.4965 133.752C53.1018 133.475 52.8778 133.096 52.8245 132.616H53.7285C53.7978 132.845 53.9445 133.029 54.1685 133.168C54.3978 133.312 54.6698 133.384 54.9845 133.384C55.3525 133.384 55.6485 133.272 55.8725 133.048C56.1018 132.824 56.2165 132.499 56.2165 132.072V131.336C56.0618 131.544 55.8512 131.72 55.5845 131.864C55.3232 132.003 55.0245 132.072 54.6885 132.072C54.3045 132.072 53.9525 131.976 53.6325 131.784C53.3178 131.587 53.0672 131.315 52.8805 130.968C52.6992 130.616 52.6085 130.219 52.6085 129.776C52.6085 129.333 52.6992 128.941 52.8805 128.6C53.0672 128.259 53.3178 127.995 53.6325 127.808C53.9525 127.616 54.3045 127.52 54.6885 127.52ZM56.2165 129.792C56.2165 129.488 56.1525 129.224 56.0245 129C55.9018 128.776 55.7392 128.605 55.5365 128.488C55.3338 128.371 55.1152 128.312 54.8805 128.312C54.6458 128.312 54.4272 128.371 54.2245 128.488C54.0218 128.6 53.8565 128.768 53.7285 128.992C53.6058 129.211 53.5445 129.472 53.5445 129.776C53.5445 130.08 53.6058 130.347 53.7285 130.576C53.8565 130.805 54.0218 130.981 54.2245 131.104C54.4325 131.221 54.6512 131.28 54.8805 131.28C55.1152 131.28 55.3338 131.221 55.5365 131.104C55.7392 130.987 55.9018 130.816 56.0245 130.592C56.1525 130.363 56.2165 130.096 56.2165 129.792ZM62.3744 129.688C62.3744 129.853 62.3637 130.003 62.3424 130.136H58.9744C59.001 130.488 59.1317 130.771 59.3664 130.984C59.601 131.197 59.889 131.304 60.2304 131.304C60.721 131.304 61.0677 131.099 61.2704 130.688H62.2544C62.121 131.093 61.8784 131.427 61.5264 131.688C61.1797 131.944 60.7477 132.072 60.2304 132.072C59.809 132.072 59.4304 131.979 59.0944 131.792C58.7637 131.6 58.5024 131.333 58.3104 130.992C58.1237 130.645 58.0304 130.245 58.0304 129.792C58.0304 129.339 58.121 128.941 58.3024 128.6C58.489 128.253 58.7477 127.987 59.0784 127.8C59.4144 127.613 59.7984 127.52 60.2304 127.52C60.6464 127.52 61.017 127.611 61.3424 127.792C61.6677 127.973 61.921 128.229 62.1024 128.56C62.2837 128.885 62.3744 129.261 62.3744 129.688ZM61.4224 129.4C61.417 129.064 61.297 128.795 61.0624 128.592C60.8277 128.389 60.537 128.288 60.1904 128.288C59.8757 128.288 59.6064 128.389 59.3824 128.592C59.1584 128.789 59.025 129.059 58.9824 129.4H61.4224ZM64.1839 128.232C64.3172 128.008 64.4932 127.835 64.7119 127.712C64.9359 127.584 65.1999 127.52 65.5039 127.52V128.464H65.2719C64.9145 128.464 64.6425 128.555 64.4559 128.736C64.2745 128.917 64.1839 129.232 64.1839 129.68V132H63.2719V127.592H64.1839V128.232ZM66.0382 129.776C66.0382 129.333 66.1289 128.941 66.3102 128.6C66.4969 128.259 66.7475 127.995 67.0622 127.808C67.3822 127.616 67.7342 127.52 68.1182 127.52C68.4649 127.52 68.7662 127.589 69.0222 127.728C69.2835 127.861 69.4915 128.029 69.6462 128.232V127.592H70.5662V132H69.6462V131.344C69.4915 131.552 69.2809 131.725 69.0142 131.864C68.7475 132.003 68.4435 132.072 68.1022 132.072C67.7235 132.072 67.3769 131.976 67.0622 131.784C66.7475 131.587 66.4969 131.315 66.3102 130.968C66.1289 130.616 66.0382 130.219 66.0382 129.776ZM69.6462 129.792C69.6462 129.488 69.5822 129.224 69.4542 129C69.3315 128.776 69.1689 128.605 68.9662 128.488C68.7635 128.371 68.5449 128.312 68.3102 128.312C68.0755 128.312 67.8569 128.371 67.6542 128.488C67.4515 128.6 67.2862 128.768 67.1582 128.992C67.0355 129.211 66.9742 129.472 66.9742 129.776C66.9742 130.08 67.0355 130.347 67.1582 130.576C67.2862 130.805 67.4515 130.981 67.6542 131.104C67.8622 131.221 68.0809 131.28 68.3102 131.28C68.5449 131.28 68.7635 131.221 68.9662 131.104C69.1689 130.987 69.3315 130.816 69.4542 130.592C69.5822 130.363 69.6462 130.096 69.6462 129.792ZM73.5081 129.8L75.5401 132H74.3081L72.6761 130.104V132H71.7641V126.08H72.6761V129.52L74.2761 127.592H75.5401L73.5081 129.8ZM82.7119 126.44V132H81.7999V129.568H79.1839V132H78.2719V126.44H79.1839V128.824H81.7999V126.44H82.7119ZM84.3765 127.008C84.2112 127.008 84.0725 126.952 83.9605 126.84C83.8485 126.728 83.7925 126.589 83.7925 126.424C83.7925 126.259 83.8485 126.12 83.9605 126.008C84.0725 125.896 84.2112 125.84 84.3765 125.84C84.5365 125.84 84.6725 125.896 84.7845 126.008C84.8965 126.12 84.9525 126.259 84.9525 126.424C84.9525 126.589 84.8965 126.728 84.7845 126.84C84.6725 126.952 84.5365 127.008 84.3765 127.008ZM84.8245 127.592V132H83.9125V127.592H84.8245ZM86.4859 127.008C86.3205 127.008 86.1819 126.952 86.0699 126.84C85.9579 126.728 85.9019 126.589 85.9019 126.424C85.9019 126.259 85.9579 126.12 86.0699 126.008C86.1819 125.896 86.3205 125.84 86.4859 125.84C86.6459 125.84 86.7819 125.896 86.8939 126.008C87.0059 126.12 87.0619 126.259 87.0619 126.424C87.0619 126.589 87.0059 126.728 86.8939 126.84C86.7819 126.952 86.6459 127.008 86.4859 127.008ZM86.9339 132.864C86.9339 133.296 86.8245 133.608 86.6059 133.8C86.3925 133.997 86.0805 134.096 85.6699 134.096H85.1979V133.328H85.5099C85.6965 133.328 85.8272 133.291 85.9019 133.216C85.9819 133.147 86.0219 133.029 86.0219 132.864V127.592H86.9339V132.864ZM87.8273 129.776C87.8273 129.333 87.9179 128.941 88.0993 128.6C88.2859 128.259 88.5366 127.995 88.8513 127.808C89.1713 127.616 89.5233 127.52 89.9073 127.52C90.2539 127.52 90.5553 127.589 90.8113 127.728C91.0726 127.861 91.2806 128.029 91.4353 128.232V127.592H92.3553V132H91.4353V131.344C91.2806 131.552 91.0699 131.725 90.8033 131.864C90.5366 132.003 90.2326 132.072 89.8913 132.072C89.5126 132.072 89.1659 131.976 88.8513 131.784C88.5366 131.587 88.2859 131.315 88.0993 130.968C87.9179 130.616 87.8273 130.219 87.8273 129.776ZM91.4353 129.792C91.4353 129.488 91.3713 129.224 91.2433 129C91.1206 128.776 90.9579 128.605 90.7553 128.488C90.5526 128.371 90.3339 128.312 90.0993 128.312C89.8646 128.312 89.6459 128.371 89.4433 128.488C89.2406 128.6 89.0753 128.768 88.9473 128.992C88.8246 129.211 88.7633 129.472 88.7633 129.776C88.7633 130.08 88.8246 130.347 88.9473 130.576C89.0753 130.805 89.2406 130.981 89.4433 131.104C89.6513 131.221 89.8699 131.28 90.0993 131.28C90.3339 131.28 90.5526 131.221 90.7553 131.104C90.9579 130.987 91.1206 130.816 91.2433 130.592C91.3713 130.363 91.4353 130.096 91.4353 129.792ZM97.5451 127.592V132H96.6331V131.48C96.4891 131.661 96.2998 131.805 96.0651 131.912C95.8358 132.013 95.5905 132.064 95.3291 132.064C94.9825 132.064 94.6705 131.992 94.3931 131.848C94.1211 131.704 93.9051 131.491 93.7451 131.208C93.5905 130.925 93.5131 130.584 93.5131 130.184V127.592H94.4171V130.048C94.4171 130.443 94.5158 130.747 94.7131 130.96C94.9105 131.168 95.1798 131.272 95.5211 131.272C95.8625 131.272 96.1318 131.168 96.3291 130.96C96.5318 130.747 96.6331 130.443 96.6331 130.048V127.592H97.5451Z" fill="white"/>
<path d="M78 68.0001C86.24 60.5067 94 53.4934 94 47.4667C94 42.5334 90.1333 38.6667 85.2 38.6667C82.4267 38.6667 79.7333 39.9734 78 42.0001C76.24 39.9734 73.5733 38.6667 70.8 38.6667C65.8667 38.6667 62 42.5334 62 47.4667C62 53.4934 69.76 60.5067 78 68.0001ZM70.8 44.0001C71.9733 44.0001 73.1733 44.5601 73.9467 45.4667L78 50.2401L82.0533 45.4667C82.8267 44.5601 84.0267 44.0001 85.2 44.0001C87.1733 44.0001 88.6667 45.4934 88.6667 47.4667C88.6667 50.4534 83.2267 55.9201 78 60.7734C72.7733 55.9201 67.3333 50.4267 67.3333 47.4667C67.3333 45.4934 68.8267 44.0001 70.8 44.0001Z" fill="white"/>
<path d="M86 76.0001H80.6667C80.6667 72.8001 78.6667 69.9201 75.68 68.8001L59.2533 62.6667H38V92.0001H54V88.1601L72.6667 93.3334L94 86.6667V84.0001C94 79.5734 90.4267 76.0001 86 76.0001ZM43.3333 86.6667V68.0001H48.6667V86.6667H43.3333ZM72.5867 87.7601L54 82.6134V68.0001H58.2933L73.8133 73.7867C74.72 74.1334 75.3333 75.0134 75.3333 76.0001C75.3333 76.0001 70.0267 75.8667 69.2 75.6001L62.8533 73.4934L61.1733 78.5601L67.52 80.6667C68.88 81.1201 70.2933 81.3601 71.7333 81.3601H86C87.04 81.3601 87.9733 81.9734 88.4 82.8534L72.5867 87.7601Z" fill="white"/>
<defs>
<linearGradient id="paint0_linear_71_204" x1="66" y1="0" x2="66" y2="152.5" gradientUnits="userSpaceOnUse">
<stop stop-color="#640D5F"/>
<stop offset="1" stop-color="#CA1AC0"/>
</linearGradient>
</defs>
</svg>
