<svg width="132" height="140" viewBox="0 0 132 140" fill="none" xmlns="http://www.w3.org/2000/svg">
<circle cx="66" cy="66" r="66" fill="url(#paint0_linear_71_207)"/>
<path d="M88.64 43.3601C87.1467 41.8668 82.9067 40.7734 77.5467 40.7734C69.3333 40.7734 58.48 43.3334 50.9333 50.8801C38.4267 63.4134 39.6 84.8534 43.36 88.6401C44.8533 90.1334 49.0933 91.2268 54.4533 91.2268C62.6667 91.2268 73.52 88.6668 81.0667 81.1201C93.5733 68.5868 92.4 47.1468 88.64 43.3601ZM49.2267 82.7734C50.9067 77.7334 54.9867 69.4668 62.2133 62.2401C69.36 55.0934 77.6267 50.9601 82.7467 49.2268C81.0667 54.2668 76.9867 62.5334 69.7333 69.7601C62.64 76.9068 54.3733 81.0401 49.2267 82.7734ZM54.6933 54.6934C61.7334 47.6534 71.6 46.3734 76.1067 46.1868C70.64 48.6934 64.2134 52.7468 58.48 58.4801C52.72 64.2401 48.6933 70.6934 46.1867 76.1601C46.4267 69.5468 48.5067 60.8534 54.6933 54.6934ZM77.3067 77.3068C70.2667 84.3468 60.4 85.6268 55.8933 85.8134C61.36 83.3068 67.7867 79.2534 73.52 73.5201C79.28 67.7601 83.3067 61.3068 85.84 55.8401C85.5734 62.4534 83.4934 71.1468 77.3067 77.3068Z" fill="white"/>
<rect x="16" y="115" width="100" height="25" rx="5" fill="#FEA405"/>
<path d="M42.3 124.05V131H41.16V127.96H37.89V131H36.75V124.05H37.89V127.03H41.16V124.05H42.3ZM44.3808 124.76C44.1741 124.76 44.0008 124.69 43.8608 124.55C43.7208 124.41 43.6508 124.237 43.6508 124.03C43.6508 123.823 43.7208 123.65 43.8608 123.51C44.0008 123.37 44.1741 123.3 44.3808 123.3C44.5808 123.3 44.7508 123.37 44.8908 123.51C45.0308 123.65 45.1008 123.823 45.1008 124.03C45.1008 124.237 45.0308 124.41 44.8908 124.55C44.7508 124.69 44.5808 124.76 44.3808 124.76ZM44.9408 125.49V131H43.8008V125.49H44.9408ZM47.0175 124.76C46.8108 124.76 46.6375 124.69 46.4975 124.55C46.3575 124.41 46.2875 124.237 46.2875 124.03C46.2875 123.823 46.3575 123.65 46.4975 123.51C46.6375 123.37 46.8108 123.3 47.0175 123.3C47.2175 123.3 47.3875 123.37 47.5275 123.51C47.6675 123.65 47.7375 123.823 47.7375 124.03C47.7375 124.237 47.6675 124.41 47.5275 124.55C47.3875 124.69 47.2175 124.76 47.0175 124.76ZM47.5775 132.08C47.5775 132.62 47.4408 133.01 47.1675 133.25C46.9008 133.497 46.5108 133.62 45.9975 133.62H45.4075V132.66H45.7975C46.0308 132.66 46.1942 132.613 46.2875 132.52C46.3875 132.433 46.4375 132.287 46.4375 132.08V125.49H47.5775V132.08ZM48.6942 128.22C48.6942 127.667 48.8076 127.177 49.0342 126.75C49.2676 126.323 49.5809 125.993 49.9742 125.76C50.3742 125.52 50.8142 125.4 51.2942 125.4C51.7276 125.4 52.1042 125.487 52.4242 125.66C52.7509 125.827 53.0109 126.037 53.2042 126.29V125.49H54.3542V131H53.2042V130.18C53.0109 130.44 52.7476 130.657 52.4142 130.83C52.0809 131.003 51.7009 131.09 51.2742 131.09C50.8009 131.09 50.3676 130.97 49.9742 130.73C49.5809 130.483 49.2676 130.143 49.0342 129.71C48.8076 129.27 48.6942 128.773 48.6942 128.22ZM53.2042 128.24C53.2042 127.86 53.1242 127.53 52.9642 127.25C52.8109 126.97 52.6076 126.757 52.3542 126.61C52.1009 126.463 51.8276 126.39 51.5342 126.39C51.2409 126.39 50.9676 126.463 50.7142 126.61C50.4609 126.75 50.2542 126.96 50.0942 127.24C49.9409 127.513 49.8642 127.84 49.8642 128.22C49.8642 128.6 49.9409 128.933 50.0942 129.22C50.2542 129.507 50.4609 129.727 50.7142 129.88C50.9742 130.027 51.2476 130.1 51.5342 130.1C51.8276 130.1 52.1009 130.027 52.3542 129.88C52.6076 129.733 52.8109 129.52 52.9642 129.24C53.1242 128.953 53.2042 128.62 53.2042 128.24ZM60.8416 125.49V131H59.7016V130.35C59.5216 130.577 59.2849 130.757 58.9916 130.89C58.7049 131.017 58.3982 131.08 58.0716 131.08C57.6382 131.08 57.2482 130.99 56.9016 130.81C56.5616 130.63 56.2916 130.363 56.0916 130.01C55.8982 129.657 55.8016 129.23 55.8016 128.73V125.49H56.9316V128.56C56.9316 129.053 57.0549 129.433 57.3016 129.7C57.5482 129.96 57.8849 130.09 58.3116 130.09C58.7382 130.09 59.0749 129.96 59.3216 129.7C59.5749 129.433 59.7016 129.053 59.7016 128.56V125.49H60.8416ZM72.2634 124.05V131H71.1234V126.24L69.0034 131H68.2134L66.0834 126.24V131H64.9434V124.05H66.1734L68.6134 129.5L71.0434 124.05H72.2634ZM78.7517 125.49V131H77.6117V130.35C77.4317 130.577 77.1951 130.757 76.9017 130.89C76.6151 131.017 76.3084 131.08 75.9817 131.08C75.5484 131.08 75.1584 130.99 74.8117 130.81C74.4717 130.63 74.2017 130.363 74.0017 130.01C73.8084 129.657 73.7117 129.23 73.7117 128.73V125.49H74.8417V128.56C74.8417 129.053 74.9651 129.433 75.2117 129.7C75.4584 129.96 75.7951 130.09 76.2217 130.09C76.6484 130.09 76.9851 129.96 77.2317 129.7C77.4851 129.433 77.6117 129.053 77.6117 128.56V125.49H78.7517ZM79.8759 128.22C79.8759 127.667 79.9892 127.177 80.2159 126.75C80.4492 126.323 80.7625 125.993 81.1559 125.76C81.5559 125.52 81.9992 125.4 82.4859 125.4C82.8459 125.4 83.1992 125.48 83.5459 125.64C83.8992 125.793 84.1792 126 84.3859 126.26V123.6H85.5359V131H84.3859V130.17C84.1992 130.437 83.9392 130.657 83.6059 130.83C83.2792 131.003 82.9025 131.09 82.4759 131.09C81.9959 131.09 81.5559 130.97 81.1559 130.73C80.7625 130.483 80.4492 130.143 80.2159 129.71C79.9892 129.27 79.8759 128.773 79.8759 128.22ZM84.3859 128.24C84.3859 127.86 84.3059 127.53 84.1459 127.25C83.9925 126.97 83.7892 126.757 83.5359 126.61C83.2825 126.463 83.0092 126.39 82.7159 126.39C82.4225 126.39 82.1492 126.463 81.8959 126.61C81.6425 126.75 81.4359 126.96 81.2759 127.24C81.1225 127.513 81.0459 127.84 81.0459 128.22C81.0459 128.6 81.1225 128.933 81.2759 129.22C81.4359 129.507 81.6425 129.727 81.8959 129.88C82.1559 130.027 82.4292 130.1 82.7159 130.1C83.0092 130.1 83.2825 130.027 83.5359 129.88C83.7892 129.733 83.9925 129.52 84.1459 129.24C84.3059 128.953 84.3859 128.62 84.3859 128.24ZM86.6532 128.22C86.6532 127.667 86.7665 127.177 86.9932 126.75C87.2265 126.323 87.5399 125.993 87.9332 125.76C88.3332 125.52 88.7732 125.4 89.2532 125.4C89.6865 125.4 90.0632 125.487 90.3832 125.66C90.7099 125.827 90.9699 126.037 91.1632 126.29V125.49H92.3132V131H91.1632V130.18C90.9699 130.44 90.7065 130.657 90.3732 130.83C90.0399 131.003 89.6599 131.09 89.2332 131.09C88.7599 131.09 88.3265 130.97 87.9332 130.73C87.5399 130.483 87.2265 130.143 86.9932 129.71C86.7665 129.27 86.6532 128.773 86.6532 128.22ZM91.1632 128.24C91.1632 127.86 91.0832 127.53 90.9232 127.25C90.7699 126.97 90.5665 126.757 90.3132 126.61C90.0599 126.463 89.7865 126.39 89.4932 126.39C89.1999 126.39 88.9265 126.463 88.6732 126.61C88.4199 126.75 88.2132 126.96 88.0532 127.24C87.8999 127.513 87.8232 127.84 87.8232 128.22C87.8232 128.6 87.8999 128.933 88.0532 129.22C88.2132 129.507 88.4199 129.727 88.6732 129.88C88.9332 130.027 89.2065 130.1 89.4932 130.1C89.7865 130.1 90.0599 130.027 90.3132 129.88C90.5665 129.733 90.7699 129.52 90.9232 129.24C91.0832 128.953 91.1632 128.62 91.1632 128.24Z" fill="white"/>
<defs>
<linearGradient id="paint0_linear_71_207" x1="66" y1="0" x2="66" y2="132" gradientUnits="userSpaceOnUse">
<stop stop-color="#375E20"/>
<stop offset="1" stop-color="#336415"/>
</linearGradient>
</defs>
</svg>
