<svg width="23" height="25" viewBox="0 0 23 25" fill="none" xmlns="http://www.w3.org/2000/svg">
<g clip-path="url(#clip0_71_56)">
<mask id="mask0_71_56" style="mask-type:luminance" maskUnits="userSpaceOnUse" x="0" y="0" width="23" height="25">
<path d="M23 0H0V25H23V0Z" fill="white"/>
</mask>
<g mask="url(#mask0_71_56)">
<path d="M0.0391981 12.4091C0.0391981 11.0244 0.0213192 9.63466 0.0391981 8.25246C0.0287255 7.53327 0.219129 6.82514 0.589497 6.20579C0.959863 5.58645 1.49587 5.07983 2.13869 4.74159C4.54724 3.35437 6.9609 1.98231 9.37459 0.605192C10.0183 0.206562 10.7628 -0.00488281 11.5226 -0.00488281C12.2825 -0.00488281 13.0269 0.206562 13.6706 0.605192C16.0341 1.95036 18.3949 3.29553 20.7532 4.6407C22.1222 5.42006 22.9498 6.55253 22.9625 8.15158C22.9855 11.1278 23.0392 14.1014 22.9268 17.0751C22.9194 17.652 22.7633 18.2175 22.4733 18.7184C22.1833 19.2192 21.7689 19.6389 21.2692 19.9378C18.6231 21.5655 15.9268 23.1074 13.1802 24.5635C12.6615 24.8512 12.0766 25.0023 11.4818 25.0023C10.8868 25.0023 10.3019 24.8512 9.78325 24.5635C7.1065 23.1511 4.49106 21.6328 1.89095 20.0891C0.358465 19.1811 -0.0118802 17.7183 -0.00421781 16.0864C-0.00421781 14.8632 -0.00421781 13.6399 -0.00421781 12.4166L0.0391981 12.4091ZM16.9756 15.7408C16.9092 15.5239 16.7534 15.4886 16.6334 15.4205C15.1367 14.563 13.6425 13.6928 12.1279 12.8605C11.9248 12.7786 11.7538 12.6344 11.6402 12.449C11.5266 12.2637 11.4763 12.0472 11.497 11.8315C11.5405 10.0987 11.5124 8.36599 11.497 6.63575C11.497 6.48947 11.5762 6.31039 11.3642 6.17671C9.64273 7.15869 7.91446 8.1415 6.17934 9.12518C6.08742 9.17202 6.01207 9.24533 5.96327 9.3354C5.91447 9.42547 5.89451 9.52805 5.90604 9.62959C5.90604 11.5229 5.90604 13.4171 5.90604 15.3121C5.8959 15.4318 5.92332 15.5517 5.98455 15.6555C6.04578 15.7592 6.13786 15.8419 6.2483 15.8922C7.87952 16.8069 9.50569 17.7317 11.1267 18.6666C11.2342 18.7419 11.3628 18.7823 11.4945 18.7823C11.6263 18.7823 11.7548 18.7419 11.8623 18.6666C12.9069 18.0537 13.9695 17.4661 15.0243 16.8658C15.6833 16.4875 16.3346 16.1091 16.9756 15.7408Z" fill="url(#paint0_linear_71_56)"/>
</g>
</g>
<defs>
<linearGradient id="paint0_linear_71_56" x1="10.2635" y1="3.92131" x2="18.2956" y2="26.5162" gradientUnits="userSpaceOnUse">
<stop stop-color="#213813"/>
<stop offset="1" stop-color="#A0C878"/>
</linearGradient>
<clipPath id="clip0_71_56">
<rect width="23" height="25" fill="white"/>
</clipPath>
</defs>
</svg>
