<svg width="93" height="102" viewBox="0 0 93 102" fill="none" xmlns="http://www.w3.org/2000/svg">
<g clip-path="url(#clip0_3_107)">
<mask id="mask0_3_107" style="mask-type:luminance" maskUnits="userSpaceOnUse" x="0" y="0" width="93" height="102">
<path d="M93 0H0V102H93V0Z" fill="white"/>
</mask>
<g mask="url(#mask0_3_107)">
<path d="M0.158441 50.6302C0.158441 44.9806 0.086148 39.3106 0.158441 33.6712C0.116095 30.7369 0.885987 27.8477 2.38356 25.3208C3.88113 22.7938 6.04845 20.7268 8.64768 19.3468C18.3866 13.687 28.1462 8.08896 37.9059 2.47031C40.5087 0.843898 43.5189 -0.0187988 46.5912 -0.0187988C49.6638 -0.0187988 52.674 0.843898 55.2768 2.47031C64.8333 7.95861 74.3793 13.4469 83.9151 18.9352C89.4507 22.115 92.7969 26.7354 92.8485 33.2596C92.9415 45.4024 93.1584 57.535 92.7039 69.6676C92.6739 72.0214 92.043 74.3287 90.8703 76.3723C89.6976 78.4156 88.0221 80.1277 86.0013 81.3475C75.3021 87.9883 64.3995 94.2793 53.2938 100.22C51.1965 101.394 48.8316 102.011 46.4262 102.011C44.0205 102.011 41.6556 101.394 39.5583 100.22C28.7349 94.4575 18.1595 88.2628 7.64595 81.9649C1.44939 78.2602 -0.048093 72.2917 -0.0171104 65.6338C-0.0171104 60.643 -0.0171104 55.6519 -0.0171104 50.6611L0.158441 50.6302ZM68.6406 64.2238C68.3721 63.3388 67.7421 63.1948 67.2567 62.917C61.2048 59.4184 55.1631 55.8679 49.0389 52.4722C48.2178 52.138 47.5263 51.5494 47.0667 50.7931C46.6074 50.0371 46.4043 49.1536 46.488 48.2737C46.6635 41.2039 46.5501 34.1344 46.488 27.075C46.488 26.4782 46.8081 25.7475 45.951 25.2021C38.9901 29.2086 32.0019 33.2185 24.986 37.2319C24.6143 37.423 24.3096 37.7221 24.1123 38.0896C23.915 38.4571 23.8343 38.8756 23.8809 39.2899C23.8809 47.0146 23.8809 54.7429 23.8809 62.4745C23.8399 62.9629 23.9508 63.4519 24.1983 63.8755C24.4459 64.2988 24.8182 64.636 25.2648 64.8415C31.8606 68.5735 38.436 72.3466 44.9904 76.1611C45.4251 76.468 45.945 76.633 46.4778 76.633C47.0106 76.633 47.5302 76.468 47.9649 76.1611C52.1889 73.6603 56.4852 71.2627 60.7503 68.8135C63.4149 67.27 66.0486 65.7262 68.6406 64.2238Z" fill="url(#paint0_linear_3_107)"/>
</g>
</g>
<defs>
<linearGradient id="paint0_linear_3_107" x1="41.5" y1="16.0001" x2="74.5" y2="108" gradientUnits="userSpaceOnUse">
<stop stop-color="#213813"/>
<stop offset="1" stop-color="#A0C878"/>
</linearGradient>
<clipPath id="clip0_3_107">
<rect width="93" height="102" fill="white"/>
</clipPath>
</defs>
</svg>
