<svg width="212" height="102" viewBox="0 0 212 102" fill="none" xmlns="http://www.w3.org/2000/svg">
<path d="M105.56 53.16C106.227 52.04 107.107 51.1733 108.2 50.56C109.32 49.92 110.64 49.6 112.16 49.6V54.32H111C109.213 54.32 107.853 54.7733 106.92 55.68C106.013 56.5867 105.56 58.16 105.56 60.4V72H101V49.96H105.56V53.16ZM136.552 60.44C136.552 61.2667 136.498 62.0133 136.392 62.68H119.552C119.685 64.44 120.338 65.8533 121.512 66.92C122.685 67.9867 124.125 68.52 125.832 68.52C128.285 68.52 130.018 67.4933 131.032 65.44H135.952C135.285 67.4667 134.072 69.1333 132.312 70.44C130.578 71.72 128.418 72.36 125.832 72.36C123.725 72.36 121.832 71.8933 120.152 70.96C118.498 70 117.192 68.6667 116.232 66.96C115.298 65.2267 114.832 63.2267 114.832 60.96C114.832 58.6933 115.285 56.7067 116.192 55C117.125 53.2667 118.418 51.9333 120.072 51C121.752 50.0667 123.672 49.6 125.832 49.6C127.912 49.6 129.765 50.0533 131.392 50.96C133.018 51.8667 134.285 53.1467 135.192 54.8C136.098 56.4267 136.552 58.3067 136.552 60.44ZM131.792 59C131.765 57.32 131.165 55.9733 129.992 54.96C128.818 53.9467 127.365 53.44 125.632 53.44C124.058 53.44 122.712 53.9467 121.592 54.96C120.472 55.9467 119.805 57.2933 119.592 59H131.792ZM161.239 60.44C161.239 61.2667 161.186 62.0133 161.079 62.68H144.239C144.372 64.44 145.026 65.8533 146.199 66.92C147.372 67.9867 148.812 68.52 150.519 68.52C152.972 68.52 154.706 67.4933 155.719 65.44H160.639C159.972 67.4667 158.759 69.1333 156.999 70.44C155.266 71.72 153.106 72.36 150.519 72.36C148.412 72.36 146.519 71.8933 144.839 70.96C143.186 70 141.879 68.6667 140.919 66.96C139.986 65.2267 139.519 63.2267 139.519 60.96C139.519 58.6933 139.972 56.7067 140.879 55C141.812 53.2667 143.106 51.9333 144.759 51C146.439 50.0667 148.359 49.6 150.519 49.6C152.599 49.6 154.452 50.0533 156.079 50.96C157.706 51.8667 158.972 53.1467 159.879 54.8C160.786 56.4267 161.239 58.3067 161.239 60.44ZM156.479 59C156.452 57.32 155.852 55.9733 154.679 54.96C153.506 53.9467 152.052 53.44 150.319 53.44C148.746 53.44 147.399 53.9467 146.279 54.96C145.159 55.9467 144.492 57.2933 144.279 59H156.479ZM174.247 67.92L180.487 49.96H185.327L176.927 72H171.487L163.127 49.96H168.007L174.247 67.92ZM198.333 72.36C196.253 72.36 194.373 71.8933 192.693 70.96C191.013 70 189.693 68.6667 188.733 66.96C187.773 65.2267 187.293 63.2267 187.293 60.96C187.293 58.72 187.787 56.7333 188.773 55C189.76 53.2667 191.107 51.9333 192.813 51C194.52 50.0667 196.427 49.6 198.533 49.6C200.64 49.6 202.547 50.0667 204.253 51C205.96 51.9333 207.307 53.2667 208.293 55C209.28 56.7333 209.773 58.72 209.773 60.96C209.773 63.2 209.267 65.1867 208.253 66.92C207.24 68.6533 205.853 70 204.093 70.96C202.36 71.8933 200.44 72.36 198.333 72.36ZM198.333 68.4C199.507 68.4 200.6 68.12 201.613 67.56C202.653 67 203.493 66.16 204.133 65.04C204.773 63.92 205.093 62.56 205.093 60.96C205.093 59.36 204.787 58.0133 204.173 56.92C203.56 55.8 202.747 54.96 201.733 54.4C200.72 53.84 199.627 53.56 198.453 53.56C197.28 53.56 196.187 53.84 195.173 54.4C194.187 54.96 193.4 55.8 192.813 56.92C192.227 58.0133 191.933 59.36 191.933 60.96C191.933 63.3333 192.533 65.1733 193.733 66.48C194.96 67.76 196.493 68.4 198.333 68.4Z" fill="url(#paint0_linear_3_228)"/>
<g clip-path="url(#clip0_3_228)">
<mask id="mask0_3_228" style="mask-type:luminance" maskUnits="userSpaceOnUse" x="0" y="0" width="93" height="102">
<path d="M93 0H0V102H93V0Z" fill="white"/>
</mask>
<g mask="url(#mask0_3_228)">
<path d="M0.158441 50.6302C0.158441 44.9806 0.086148 39.3106 0.158441 33.6712C0.116095 30.7369 0.885987 27.8477 2.38356 25.3208C3.88113 22.7938 6.04845 20.7268 8.64768 19.3468C18.3866 13.687 28.1462 8.08896 37.9059 2.47031C40.5087 0.843898 43.5189 -0.0187988 46.5912 -0.0187988C49.6638 -0.0187988 52.674 0.843898 55.2768 2.47031C64.8333 7.95861 74.3793 13.4469 83.9151 18.9352C89.4507 22.115 92.7969 26.7354 92.8485 33.2596C92.9415 45.4024 93.1584 57.535 92.7039 69.6676C92.6739 72.0214 92.043 74.3287 90.8703 76.3723C89.6976 78.4156 88.0221 80.1277 86.0013 81.3475C75.3021 87.9883 64.3995 94.2793 53.2938 100.22C51.1965 101.394 48.8316 102.011 46.4262 102.011C44.0205 102.011 41.6556 101.394 39.5583 100.22C28.7349 94.4575 18.1595 88.2628 7.64595 81.9649C1.44939 78.2602 -0.048093 72.2917 -0.0171104 65.6338C-0.0171104 60.643 -0.0171104 55.6519 -0.0171104 50.6611L0.158441 50.6302ZM68.6406 64.2238C68.3721 63.3388 67.7421 63.1948 67.2567 62.917C61.2048 59.4184 55.1631 55.8679 49.0389 52.4722C48.2178 52.138 47.5263 51.5494 47.0667 50.7931C46.6074 50.0371 46.4043 49.1536 46.488 48.2737C46.6635 41.2039 46.5501 34.1344 46.488 27.075C46.488 26.4782 46.8081 25.7475 45.951 25.2021C38.9901 29.2086 32.0019 33.2185 24.986 37.2319C24.6143 37.423 24.3096 37.7221 24.1123 38.0896C23.915 38.4571 23.8343 38.8756 23.8809 39.2899C23.8809 47.0146 23.8809 54.7429 23.8809 62.4745C23.8399 62.9629 23.9508 63.4519 24.1983 63.8755C24.4459 64.2988 24.8182 64.636 25.2648 64.8415C31.8606 68.5735 38.436 72.3466 44.9904 76.1611C45.4251 76.468 45.945 76.633 46.4778 76.633C47.0106 76.633 47.5302 76.468 47.9649 76.1611C52.1889 73.6603 56.4852 71.2627 60.7503 68.8135C63.4149 67.27 66.0486 65.7262 68.6406 64.2238Z" fill="url(#paint1_linear_3_228)"/>
</g>
</g>
<defs>
<linearGradient id="paint0_linear_3_228" x1="155" y1="28" x2="155" y2="88" gradientUnits="userSpaceOnUse">
<stop stop-color="#415D2D"/>
</linearGradient>
<linearGradient id="paint1_linear_3_228" x1="41.5" y1="16.0001" x2="74.5" y2="108" gradientUnits="userSpaceOnUse">
<stop stop-color="#213813"/>
<stop offset="1" stop-color="#A0C878"/>
</linearGradient>
<clipPath id="clip0_3_228">
<rect width="93" height="102" fill="white"/>
</clipPath>
</defs>
</svg>
