<svg width="114" height="114" viewBox="0 0 114 114" fill="none" xmlns="http://www.w3.org/2000/svg">
<rect width="114" height="114" rx="20" fill="black"/>
<g clip-path="url(#clip0_3_217)">
<mask id="mask0_3_217" style="mask-type:luminance" maskUnits="userSpaceOnUse" x="24" y="21" width="67" height="73">
<path d="M91 21H24V94H91V21Z" fill="white"/>
</mask>
<g mask="url(#mask0_3_217)">
<path d="M56.1113 37.301C51.0982 40.1673 46.0654 43.0361 41.0127 45.9074V45.9084C40.4219 46.2295 39.933 46.7137 39.6113 47.3088C39.3027 47.8798 39.1634 48.5255 39.2041 49.1721V65.7121C39.1768 66.4189 39.3501 67.1185 39.709 67.7287L39.71 67.7297C40.0705 68.3419 40.5992 68.8321 41.2275 69.1525C45.9636 71.8147 50.6852 74.5059 55.3916 77.2267C56.0153 77.6286 56.7414 77.8449 57.4844 77.8449C58.2246 77.8448 58.9475 77.6304 59.5693 77.2316C62.5984 75.4501 65.6546 73.7562 68.7568 71.9865H68.7578L68.7637 71.9826C70.636 70.9052 72.6397 69.7388 74.4482 68.6974L75.8281 67.9025L75.3633 66.3801C75.1276 65.6085 74.6828 65.0708 74.1748 64.7072C73.955 64.5499 73.7474 64.4429 73.626 64.382C73.5948 64.3664 73.5652 64.3514 73.542 64.34C73.5168 64.3276 73.4991 64.3191 73.4824 64.3107C73.4675 64.3033 73.4574 64.2974 73.4512 64.2941C69.1078 61.7998 64.7267 59.2436 60.2939 56.8019L60.1895 56.7443L60.0791 56.6994L59.9385 56.6291C59.8049 56.5484 59.6938 56.4378 59.6143 56.3078C59.5088 56.1352 59.4636 55.936 59.4824 55.7394L59.4893 55.6691L59.4902 55.5988C59.6176 50.5018 59.5358 45.4024 59.4912 40.3771C59.4912 40.4044 59.4871 40.4388 59.5068 40.2492C59.52 40.1225 59.5491 39.8434 59.5225 39.5256C59.4936 39.1821 59.3992 38.7606 59.1484 38.3351C58.8973 37.9093 58.5517 37.5854 58.1729 37.3459L57.1562 36.7033L56.1113 37.301ZM26.1143 57.2355C26.1143 53.1559 26.0624 49.145 26.1143 45.1242V45.0685C26.0892 43.3404 26.5452 41.6376 27.4346 40.1467C28.3242 38.6554 29.6137 37.4327 31.1631 36.6154L31.1973 36.5978L31.2305 36.5783C38.2419 32.5304 45.267 28.5273 52.3018 24.5041L52.333 24.4865L52.3633 24.467C53.9207 23.5002 55.7238 22.9866 57.5654 22.9865C59.4074 22.9865 61.2111 23.5002 62.7686 24.467L62.7998 24.4865L62.832 24.5051C69.7162 28.4326 76.5926 32.3607 83.4619 36.2883H83.4639C86.8573 38.2247 88.7409 40.835 88.8828 44.465L88.8906 44.8195C88.9579 53.5393 89.1133 62.1598 88.7881 70.7844L88.7871 70.8098V70.8342C88.771 72.0916 88.4516 73.3269 87.8564 74.4377L87.7334 74.6584C87.0594 75.8248 86.0955 76.805 84.9297 77.5041L84.9189 77.5099L84.9082 77.5168C77.2366 82.2471 69.4192 86.7284 61.4561 90.9601L61.4229 90.9777C60.2101 91.6521 58.8408 92.0079 57.4473 92.008C56.0534 92.008 54.6836 91.6521 53.4707 90.9777L53.4336 90.9582C45.6813 86.8578 38.0968 82.4447 30.5312 77.9426L30.5293 77.9416L30.2031 77.7394C26.903 75.6125 25.967 72.3162 25.9873 67.9826V58.9377L26.1143 58.9162V57.2355Z" stroke="white" stroke-width="4"/>
</g>
</g>
<defs>
<clipPath id="clip0_3_217">
<rect width="67" height="73" fill="white" transform="translate(24 21)"/>
</clipPath>
</defs>
</svg>
