<svg width="114" height="114" viewBox="0 0 114 114" fill="none" xmlns="http://www.w3.org/2000/svg">
<rect width="114" height="114" rx="20" fill="white"/>
<g clip-path="url(#clip0_3_201)">
<mask id="mask0_3_201" style="mask-type:luminance" maskUnits="userSpaceOnUse" x="24" y="21" width="67" height="73">
<path d="M91 21H24V94H91V21Z" fill="white"/>
</mask>
<g mask="url(#mask0_3_201)">
<path d="M24.1141 57.2352C24.1141 53.1919 24.062 49.1339 24.1141 45.0979C24.0836 42.9979 24.6383 40.9301 25.7172 39.1216C26.7961 37.3131 28.3575 35.8338 30.23 34.8461C37.2462 30.7955 44.2773 26.7891 51.3085 22.7679C53.1837 21.6039 55.3523 20.9865 57.5657 20.9865C59.7793 20.9865 61.9479 21.6039 63.823 22.7679C70.7078 26.6958 77.5851 30.6237 84.4549 34.5516C88.4429 36.8273 90.8536 40.1341 90.8908 44.8033C90.9578 53.4938 91.1141 62.1769 90.7867 70.86C90.765 72.5446 90.3105 74.1959 89.4657 75.6585C88.6208 77.1208 87.4137 78.3462 85.9579 79.2192C78.2499 83.9719 70.3953 88.4743 62.3944 92.7261C60.8835 93.5662 59.1797 94.0075 57.4468 94.0075C55.7137 94.0075 54.0099 93.5662 52.499 92.7261C44.7015 88.6018 37.0826 84.1684 29.5083 79.661C25.0442 77.0096 23.9653 72.7381 23.9876 67.9731C23.9876 64.4012 23.9876 60.8292 23.9876 57.2573L24.1141 57.2352ZM73.4507 66.964C73.2573 66.3306 72.8034 66.2275 72.4537 66.0287C68.0937 63.5248 63.7411 60.9838 59.3291 58.5535C58.7375 58.3143 58.2393 57.8931 57.9082 57.3518C57.5773 56.8107 57.431 56.1784 57.4913 55.5487C57.6178 50.4889 57.5361 45.4294 57.4913 40.3771C57.4913 39.95 57.7219 39.427 57.1045 39.0367C52.0896 41.9041 47.0551 44.7739 42.0006 47.6462C41.7328 47.783 41.5134 47.9971 41.3712 48.2601C41.229 48.5231 41.1709 48.8226 41.2045 49.1191C41.2045 54.6476 41.2045 60.1786 41.2045 65.712C41.1749 66.0616 41.2548 66.4115 41.4332 66.7147C41.6115 67.0176 41.8798 67.259 42.2015 67.4061C46.9533 70.077 51.6904 72.7773 56.4124 75.5073C56.7256 75.727 57.1001 75.8451 57.484 75.8451C57.8678 75.8451 58.2422 75.727 58.5553 75.5073C61.5984 73.7175 64.6936 72.0016 67.7663 70.2488C69.686 69.1441 71.5834 68.0392 73.4507 66.964Z" fill="url(#paint0_linear_3_201)"/>
</g>
</g>
<defs>
<linearGradient id="paint0_linear_3_201" x1="53.8978" y1="32.4509" x2="77.3951" y2="98.3927" gradientUnits="userSpaceOnUse">
<stop stop-color="#213813"/>
<stop offset="1" stop-color="#A0C878"/>
</linearGradient>
<clipPath id="clip0_3_201">
<rect width="67" height="73" fill="white" transform="translate(24 21)"/>
</clipPath>
</defs>
</svg>
