<svg width="25" height="28" viewBox="0 0 25 28" fill="none" xmlns="http://www.w3.org/2000/svg">
<g clip-path="url(#clip0_101_119)">
<mask id="mask0_101_119" style="mask-type:luminance" maskUnits="userSpaceOnUse" x="0" y="0" width="25" height="28">
<path d="M25 0H0V28H25V0Z" fill="white"/>
</mask>
<g mask="url(#mask0_101_119)">
<path d="M0.0426173 13.8983C0.0426173 12.3474 0.0231837 10.7909 0.0426173 9.24285C0.031234 8.43736 0.238194 7.64426 0.640768 6.95058C1.04334 6.25692 1.62595 5.68951 2.32467 5.31067C4.94266 3.75699 7.56621 2.22029 10.1898 0.677913C10.8895 0.231448 11.6987 -0.00537109 12.5245 -0.00537109C13.3505 -0.00537109 14.1597 0.231448 14.8594 0.677913C17.4283 2.18451 19.9945 3.6911 22.5578 5.19768C24.0459 6.07057 24.9454 7.33893 24.9593 9.12987C24.9843 12.4632 25.0426 15.7937 24.9204 19.1242C24.9124 19.7704 24.7428 20.4037 24.4275 20.9647C24.1123 21.5256 23.6619 21.9956 23.1187 22.3305C20.2425 24.1534 17.3117 25.8804 14.3263 27.5112C13.7625 27.8335 13.1268 28.0027 12.4802 28.0027C11.8335 28.0027 11.1978 27.8335 10.634 27.5112C7.72447 25.9293 4.8816 24.2288 2.05539 22.4999C0.389647 21.483 -0.0129026 19.8446 -0.00457396 18.0169C-0.00457396 16.6469 -0.00457396 15.2768 -0.00457396 13.9067L0.0426173 13.8983ZM18.4518 17.6298C18.3796 17.3869 18.2103 17.3474 18.0798 17.2711C16.4529 16.3107 14.8288 15.3361 13.1825 14.4039C12.9618 14.3122 12.7759 14.1506 12.6524 13.943C12.5289 13.7355 12.4743 13.4929 12.4968 13.2514C12.544 11.3107 12.5135 9.37001 12.4968 7.43214C12.4968 7.2683 12.5828 7.06773 12.3524 6.91801C10.4812 8.01783 8.60269 9.11858 6.71668 10.2203C6.61677 10.2728 6.53487 10.3549 6.48182 10.4557C6.42878 10.5566 6.40709 10.6715 6.41962 10.7852C6.41962 12.9057 6.41962 15.0272 6.41962 17.1496C6.4086 17.2837 6.4384 17.4179 6.50495 17.5342C6.57151 17.6504 6.6716 17.743 6.79165 17.7994C8.5647 18.8239 10.3323 19.8596 12.0942 20.9067C12.2111 20.991 12.3508 21.0363 12.4941 21.0363C12.6373 21.0363 12.777 20.991 12.8938 20.9067C14.0293 20.2203 15.1842 19.5621 16.3307 18.8898C17.047 18.4661 17.755 18.0423 18.4518 17.6298Z" fill="url(#paint0_linear_101_119)"/>
</g>
</g>
<defs>
<linearGradient id="paint0_linear_101_119" x1="11.1559" y1="4.39196" x2="20.3617" y2="29.5242" gradientUnits="userSpaceOnUse">
<stop offset="1" stop-color="white"/>
</linearGradient>
<clipPath id="clip0_101_119">
<rect width="25" height="28" fill="white"/>
</clipPath>
</defs>
</svg>
